<?xml version="1.0" encoding="utf-8"?>
<!-- Generator: Adobe Illustrator 18.1.1, SVG Export Plug-In . SVG Version: 6.00 Build 0)  -->
<svg version="1.1" id="图层_1" xmlns="http://www.w3.org/2000/svg" xmlns:xlink="http://www.w3.org/1999/xlink" x="0px" y="0px"
	 viewBox="0 0 612 792" enable-background="new 0 0 612 792" xml:space="preserve">
<g>
	<g>
		<g>
			<path fill="#D9D0C7" d="M146.7,456.2c5.8-12.9,8.8-30.7,8.8-53.4V265h56.4v149.2c0,2.8,0,5.5-0.3,8.1
				C210.7,442.6,162,453.7,146.7,456.2"/>
			<path fill="#8FC740" d="M5.6,537.1c0-62,31-63.2,95-62.7c41.8,0.3,85.4-7.8,110.4-28.2c-6.6,31.5-74.6,52.2-121.7,53.2
				c39.6,2,100.8-9.6,117.4-34.3C175.1,563.6,58.2,500.1,5.6,537.1"/>
		</g>
	</g>
	<g>
		<path fill="#D9D0C7" d="M295.8,445.4v-69.5l-3-55.2h1L322,445.1h35.3L386,320.7l-3.5,55.2v69.3h46.6V265h-63l-26.5,111.9
			L314.2,265h-63.7v180.4H295.8z M510.3,390.2h-48.9l0,0c3,36.8,25.2,55.2,66.5,55.2l0,0l0,0c24.7,0,43.3-4.8,55.9-14.1l0,0l0,0
			c12.6-9.3,18.9-23.7,19.4-42.8l0,0l0,0c-0.3-14.1-5.3-25.4-15.4-34.3l0,0l0,0c-10.1-8.6-23.7-14.4-41.1-16.9l0,0l0,0
			c-21.2-3-32.3-10.1-33.5-21.7l0,0l0,0c0.8-9.1,6.3-13.9,16.6-14.6l0,0l0,0c11.8-0.3,18.4,6,20.2,19.4l0,0h48.4l0,0
			c-1.5-18.6-8.1-32.5-19.7-41.8l0,0l0,0c-11.3-9.3-26-13.9-43.6-13.9l0,0l0,0c-10.3,0-20.4,1.5-30,4.5l0,0l0,0
			c-9.8,3-17.4,6.6-22.9,11.1l0,0l0,0c-11.8,9.6-17.6,23.2-17.9,40.8l0,0l0,0c0.3,9.1,2.8,17.6,7.6,25.2l0,0l0,0
			c4.8,7.6,11.8,14.1,20.7,19.1l0,0l0,0c8.6,5,18.4,8.3,29.5,9.8l0,0l0,0c20.2,3,30.5,9.6,31.2,19.9l0,0l0,0c0,5.3-2,9.6-5.8,12.6
			l0,0l0,0c-3.8,3.3-8.6,4.8-14.1,4.8l0,0l0,0c-6,0-11.3-2-15.6-6l0,0l0,0C513.8,402.6,511,397.3,510.3,390.2L510.3,390.2z"/>
	</g>
	<g transform="translate(0,36.33656311035156)">
		<g transform="translate(13.020004272460938,0)">
			<path fill="#8FC740" d="M209.5,467.6v-4h5v2.8l0,0c0,4.3,2,6.6,6,6.6l0,0l0,0c4.3,0,6.3-2.3,6.3-7.1l0,0v-29.2h5.3v29l0,0
				c-0.3,7.3-4,11.1-11.6,11.3l0,0l0,0C213.8,476.9,210,473.6,209.5,467.6L209.5,467.6z M261.2,455.8L261.2,455.8h-4.8l0,0
				c0-3.3-2.3-5-7.1-5l0,0l0,0c-3.5,0.3-5.5,1.5-5.5,4l0,0l0,0c-0.3,1.8,1.5,3.3,5.3,3.8l0,0l5,1l0,0c5.5,1.3,8.1,3.8,8.1,7.8l0,0
				l0,0c-0.3,5.8-4,8.8-11.3,9.1l0,0l0,0c-8.3,0-12.3-3.3-12.6-9.8l0,0h4.5l0,0c0.3,4,3,6,8.1,6l0,0l0,0c4.3-0.3,6.3-1.8,6.6-4.8
				l0,0l0,0c0.3-1.8-1.5-3-5.5-4.3l0,0l-5.8-1.3l0,0c-4.5-1.3-6.8-3.5-6.8-7.1l0,0l0,0c0.3-6,4-9.1,11.1-9.6l0,0l0,0
				C257.2,446.7,260.7,449.7,261.2,455.8z M294.5,460.3v4h-28v-4H294.5z M338.8,436.6v39.8h-5.3V453l0,0c0-2.3,0-5.5,0-10.1l0,0
				l-11.3,33.5h-5.3l-11.1-33.5h-0.3l0,0c0,1.5,0,4,0.3,7.1l0,0l0,0c0,1.5,0,2.5,0,2.8l0,0v23.4h-5.3v-39.8h7.8l11.6,33.8l11.3-33.8
				h7.6V436.6z M369.8,447.2v29.2h-4.5v-4l-0.3-0.3l0,0c-2,3.3-5,5-9.3,4.8l0,0l0,0c-6-0.3-9.1-3.3-9.3-8.6l0,0v-20.9h5v19.4l0,0
				c0,4.3,1.8,6.6,5.5,6.6l0,0l0,0c4.8-0.3,7.6-3.5,8.1-9.8l0,0v-16.1L369.8,447.2L369.8,447.2z M377.1,436.6h5v39.8h-5V436.6z
				 M399.8,447.2v4H395v18.9l0,0c0,1.5,1,2.3,2.8,2.3l0,0h2v3.8l0,0c-0.8,0-1.8,0-3,0l0,0l0,0c-0.3,0-0.5,0-0.8,0l0,0l0,0
				c-4.3,0-6.3-1.8-6-5.5l0,0v-19.4h-3.8v-4h3.8v-8.1h5v8.1H399.8L399.8,447.2z M404.6,447.2h5v29.2h-5V447.2z M409.6,436.6v5.3h-5
				v-5.3H409.6z M443.1,460.3v4h-28v-4H443.1z M478.6,448.2L478.6,448.2h-5l0,0c-0.3-5-3.5-7.8-9.8-8.1l0,0l0,0
				c-6,0.3-8.8,2.5-8.8,7.1l0,0l0,0c0,2.8,1.5,4.5,4.8,5l0,0l11.3,2.5l0,0c6,1.5,8.8,5,8.8,10.8l0,0l0,0
				c-0.3,7.3-5.3,11.1-15.6,11.6l0,0l0,0c-5.5,0-9.6-1.3-11.8-3.5l0,0l0,0c-2.8-2.3-4.3-5.5-4-10.1l0,0h5.3l0,0
				c0.3,6,3.8,9.1,10.8,9.3l0,0l0,0c7.1-0.3,10.6-2.3,10.6-6.8l0,0l0,0c0.5-3.5-2.3-6-8.8-7.1l0,0l-8.3-1.8l0,0
				c-5.5-1.5-8.6-4.8-8.6-9.6l0,0l0,0c0.5-7.8,5-11.8,13.9-12.1l0,0l0,0C473.1,435.6,478.1,439.9,478.6,448.2z M505.6,467.3
				L505.6,467.3h4.8l0,0c-0.5,3.3-2.3,6-5.3,8.1l0,0l0,0c-1.5,1-4.3,1.5-7.8,1.5l0,0l0,0c-8.3-0.3-12.6-5-13.1-14.1l0,0l0,0
				c0.3-10.6,4.8-16.1,13.9-16.4l0,0l0,0c8.3,0.3,12.3,5.8,12.6,17.1l0,0h-21.2l0,0c0,6.3,2.8,9.6,8.6,9.6l0,0l0,0
				C502.1,472.9,504.6,470.9,505.6,467.3z M489.5,459.8L489.5,459.8h16.4l0,0c-0.5-5.8-3.3-8.6-8.3-8.6l0,0l0,0
				C492.8,451.5,490.2,454.2,489.5,459.8z M536.6,467.3L536.6,467.3h4.8l0,0c-0.5,3.3-2.3,6-5.3,8.1l0,0l0,0c-1.5,1-4.3,1.5-7.8,1.5
				l0,0l0,0c-8.3-0.3-12.6-5-13.1-14.1l0,0l0,0c0.3-10.6,5-16.1,13.9-16.4l0,0l0,0c8.3,0.3,12.3,5.8,12.6,17.1l0,0h-21.2l0,0
				c0,6.3,2.8,9.6,8.6,9.6l0,0l0,0C532.8,472.9,535.3,470.9,536.6,467.3z M520.5,459.8L520.5,459.8h16.4l0,0
				c-0.5-5.8-3.3-8.6-8.3-8.6l0,0l0,0C523.7,451.5,521,454.2,520.5,459.8z M566.6,436.6h4.8v39.8h-4.5v-3.8l0,0
				c-1.8,2.8-4.5,4.3-8.3,4.3l0,0l0,0c-8.1-0.3-12.3-5.5-12.9-15.9l0,0l0,0c0.5-9.3,4.5-14.1,12.1-14.6l0,0l0,0c3,0,5.8,1.5,8.3,4.3
				l0,0l0,0c0.3,0.3,0.3,0.5,0.5,0.8l0,0v-0.3V436.6L566.6,436.6z M550.7,461.8L550.7,461.8L550.7,461.8c0.3,7.3,3,11.1,7.8,11.3
				l0,0l0,0c5.3-0.5,7.8-3.8,8.1-9.8l0,0l0,0c0-8.3-2.5-12.3-7.8-12.3l0,0l0,0C553.2,451,550.7,454.5,550.7,461.8z"/>
		</g>
	</g>
</g>
</svg>
